<mxfile host="app.diagrams.net" modified="2022-09-14T14:12:44.017Z" agent="5.0 (Macintosh; Intel Mac OS X 10_15_7) AppleWebKit/537.36 (KHTML, like Gecko) Chrome/105.0.0.0 Safari/537.36" etag="uFE48pdFMcAYRdTeaLM3" version="20.2.8" type="github">
  <diagram id="vSn0QKJqHxPC6K8kOgIM" name="Page-1">
    <mxGraphModel dx="1298" dy="834" grid="1" gridSize="10" guides="1" tooltips="1" connect="1" arrows="1" fold="1" page="1" pageScale="1" pageWidth="850" pageHeight="1100" math="0" shadow="0">
      <root>
        <mxCell id="0" />
        <mxCell id="1" parent="0" />
        <mxCell id="Ktnll7n3VR85cGEusO8C-1" style="edgeStyle=orthogonalEdgeStyle;rounded=1;orthogonalLoop=1;jettySize=auto;html=1;entryX=1;entryY=0.659;entryDx=0;entryDy=0;entryPerimeter=0;strokeColor=#d6b656;strokeWidth=2;fillColor=#fff2cc;fontFamily=Comic Sans MS;" edge="1" parent="1" source="Ktnll7n3VR85cGEusO8C-3" target="Ktnll7n3VR85cGEusO8C-6">
          <mxGeometry relative="1" as="geometry">
            <Array as="points">
              <mxPoint x="500" y="330" />
              <mxPoint x="500" y="330" />
            </Array>
          </mxGeometry>
        </mxCell>
        <mxCell id="Ktnll7n3VR85cGEusO8C-2" style="edgeStyle=orthogonalEdgeStyle;rounded=1;orthogonalLoop=1;jettySize=auto;html=1;entryX=1;entryY=0.958;entryDx=0;entryDy=0;entryPerimeter=0;strokeColor=#d6b656;strokeWidth=2;fillColor=#fff2cc;fontFamily=Comic Sans MS;" edge="1" parent="1" source="Ktnll7n3VR85cGEusO8C-3" target="Ktnll7n3VR85cGEusO8C-6">
          <mxGeometry relative="1" as="geometry">
            <Array as="points">
              <mxPoint x="480" y="470" />
              <mxPoint x="480" y="470" />
            </Array>
          </mxGeometry>
        </mxCell>
        <mxCell id="Ktnll7n3VR85cGEusO8C-3" value="" style="rounded=0;whiteSpace=wrap;html=1;strokeColor=#d6b656;dashed=1;fillColor=#fff2cc;fontFamily=Comic Sans MS;" vertex="1" parent="1">
          <mxGeometry x="578" y="20" width="120" height="470" as="geometry" />
        </mxCell>
        <mxCell id="Ktnll7n3VR85cGEusO8C-4" style="edgeStyle=orthogonalEdgeStyle;rounded=1;orthogonalLoop=1;jettySize=auto;html=1;entryX=0;entryY=0.5;entryDx=0;entryDy=0;fillColor=#dae8fc;strokeColor=#6c8ebf;strokeWidth=2;dashed=1;dashPattern=1 1;fontFamily=Comic Sans MS;" edge="1" parent="1" target="Ktnll7n3VR85cGEusO8C-9">
          <mxGeometry relative="1" as="geometry">
            <Array as="points">
              <mxPoint x="210" y="535" />
            </Array>
            <mxPoint x="210" y="490" as="sourcePoint" />
          </mxGeometry>
        </mxCell>
        <mxCell id="Ktnll7n3VR85cGEusO8C-5" style="edgeStyle=orthogonalEdgeStyle;rounded=1;orthogonalLoop=1;jettySize=auto;html=1;entryX=-0.008;entryY=0.814;entryDx=0;entryDy=0;entryPerimeter=0;strokeColor=#6c8ebf;strokeWidth=2;fillColor=#dae8fc;dashed=1;dashPattern=1 1;fontFamily=Comic Sans MS;" edge="1" parent="1" source="Ktnll7n3VR85cGEusO8C-6" target="Ktnll7n3VR85cGEusO8C-3">
          <mxGeometry relative="1" as="geometry">
            <Array as="points">
              <mxPoint x="425" y="403" />
            </Array>
          </mxGeometry>
        </mxCell>
        <mxCell id="Ktnll7n3VR85cGEusO8C-6" value="" style="rounded=0;whiteSpace=wrap;html=1;strokeColor=#6c8ebf;dashed=1;fillColor=#dae8fc;fontFamily=Comic Sans MS;" vertex="1" parent="1">
          <mxGeometry x="153" y="20" width="120" height="470" as="geometry" />
        </mxCell>
        <mxCell id="Ktnll7n3VR85cGEusO8C-7" style="edgeStyle=orthogonalEdgeStyle;rounded=1;orthogonalLoop=1;jettySize=auto;html=1;strokeColor=#d6b656;strokeWidth=2;fillColor=#fff2cc;fontFamily=Comic Sans MS;" edge="1" parent="1" source="Ktnll7n3VR85cGEusO8C-8" target="Ktnll7n3VR85cGEusO8C-16">
          <mxGeometry relative="1" as="geometry">
            <Array as="points">
              <mxPoint x="638" y="180" />
              <mxPoint x="90" y="180" />
            </Array>
          </mxGeometry>
        </mxCell>
        <mxCell id="Ktnll7n3VR85cGEusO8C-8" value="Authorization server" style="rounded=0;whiteSpace=wrap;html=1;dashed=1;fillColor=#fff2cc;strokeColor=#d6b656;strokeWidth=2;fontFamily=Comic Sans MS;" vertex="1" parent="1">
          <mxGeometry x="588" y="30" width="100" height="50" as="geometry" />
        </mxCell>
        <mxCell id="Ktnll7n3VR85cGEusO8C-9" value="API server" style="rounded=0;whiteSpace=wrap;html=1;fillColor=#d5e8d4;strokeColor=#82b366;fontFamily=Comic Sans MS;" vertex="1" parent="1">
          <mxGeometry x="585" y="510" width="100" height="50" as="geometry" />
        </mxCell>
        <mxCell id="Ktnll7n3VR85cGEusO8C-10" value="&lt;span style=&quot;&quot;&gt;The server exchanges a secret with the authorization server to produce a signing URL where the user can prove their identity and grant access&lt;/span&gt;" style="text;html=1;strokeColor=#6c8ebf;fillColor=#dae8fc;align=left;verticalAlign=middle;whiteSpace=wrap;rounded=0;dashed=1;spacingLeft=35;fontFamily=Comic Sans MS;" vertex="1" parent="1">
          <mxGeometry x="284" y="27" width="262" height="75" as="geometry" />
        </mxCell>
        <mxCell id="Ktnll7n3VR85cGEusO8C-11" value="1" style="ellipse;whiteSpace=wrap;html=1;aspect=fixed;strokeWidth=2;fontFamily=Comic Sans MS;spacingBottom=4;spacingRight=2;strokeColor=#6c8ebf;fillColor=#dae8fc;" vertex="1" parent="1">
          <mxGeometry x="292" y="37" width="20" height="20" as="geometry" />
        </mxCell>
        <mxCell id="Ktnll7n3VR85cGEusO8C-12" value="&lt;span style=&quot;text-align: center;&quot;&gt;The authorization server serves the signing URL&lt;/span&gt;" style="text;html=1;strokeColor=#d6b656;fillColor=#fff2cc;align=left;verticalAlign=middle;whiteSpace=wrap;rounded=0;dashed=1;spacingLeft=35;spacingRight=10;fontFamily=Comic Sans MS;" vertex="1" parent="1">
          <mxGeometry x="294.87" y="122" width="245.13" height="50" as="geometry" />
        </mxCell>
        <mxCell id="Ktnll7n3VR85cGEusO8C-13" value="2" style="ellipse;whiteSpace=wrap;html=1;aspect=fixed;strokeWidth=2;fontFamily=Comic Sans MS;spacingBottom=4;spacingRight=2;strokeColor=#d6b656;fillColor=#fff2cc;" vertex="1" parent="1">
          <mxGeometry x="301.87" y="137" width="20" height="20" as="geometry" />
        </mxCell>
        <mxCell id="Ktnll7n3VR85cGEusO8C-14" value="The server request user&#39;s data" style="text;html=1;strokeColor=#6c8ebf;fillColor=#dae8fc;align=center;verticalAlign=middle;whiteSpace=wrap;rounded=0;dashed=1;spacingLeft=25;fontFamily=Comic Sans MS;" vertex="1" parent="1">
          <mxGeometry x="324.01" y="490" width="215.99" height="40" as="geometry" />
        </mxCell>
        <mxCell id="Ktnll7n3VR85cGEusO8C-15" style="edgeStyle=orthogonalEdgeStyle;rounded=1;orthogonalLoop=1;jettySize=auto;html=1;entryX=0.017;entryY=0.468;entryDx=0;entryDy=0;entryPerimeter=0;strokeColor=#9673a6;strokeWidth=2;fillColor=#e1d5e7;dashed=1;fontFamily=Comic Sans MS;" edge="1" parent="1" source="Ktnll7n3VR85cGEusO8C-16" target="Ktnll7n3VR85cGEusO8C-3">
          <mxGeometry relative="1" as="geometry">
            <Array as="points">
              <mxPoint x="90" y="240" />
            </Array>
          </mxGeometry>
        </mxCell>
        <mxCell id="Ktnll7n3VR85cGEusO8C-16" value="" style="shape=umlActor;verticalLabelPosition=bottom;verticalAlign=top;html=1;outlineConnect=0;strokeColor=#9673a6;strokeWidth=1;fillColor=#e1d5e7;fontFamily=Comic Sans MS;" vertex="1" parent="1">
          <mxGeometry x="80" y="80" width="20" height="40" as="geometry" />
        </mxCell>
        <mxCell id="Ktnll7n3VR85cGEusO8C-17" value="&lt;span style=&quot;&quot;&gt;User logs in and grants access&lt;/span&gt;" style="text;html=1;strokeColor=#9673a6;fillColor=#e1d5e7;align=left;verticalAlign=middle;whiteSpace=wrap;rounded=0;dashed=1;spacingLeft=35;spacingRight=10;fontFamily=Comic Sans MS;" vertex="1" parent="1">
          <mxGeometry x="309.43" y="200.5" width="216" height="33" as="geometry" />
        </mxCell>
        <mxCell id="Ktnll7n3VR85cGEusO8C-18" value="&lt;span style=&quot;&quot;&gt;The authorization server issues a one-time code that can be exchanged for an access token&lt;/span&gt;" style="text;html=1;strokeColor=#d6b656;fillColor=#fff2cc;align=left;verticalAlign=middle;whiteSpace=wrap;rounded=0;dashed=1;spacingLeft=35;spacingRight=10;fontFamily=Comic Sans MS;" vertex="1" parent="1">
          <mxGeometry x="287" y="263" width="276" height="60" as="geometry" />
        </mxCell>
        <mxCell id="Ktnll7n3VR85cGEusO8C-19" value="&lt;span style=&quot;&quot;&gt;The server exchanges the one-time code for an access token&lt;/span&gt;" style="text;html=1;strokeColor=#6c8ebf;fillColor=#dae8fc;align=left;verticalAlign=middle;whiteSpace=wrap;rounded=0;dashed=1;spacingLeft=35;spacingRight=10;fontFamily=Comic Sans MS;" vertex="1" parent="1">
          <mxGeometry x="290" y="353" width="270" height="43" as="geometry" />
        </mxCell>
        <mxCell id="Ktnll7n3VR85cGEusO8C-20" value="&lt;span style=&quot;&quot;&gt;The authorization server issues an access token&lt;/span&gt;" style="text;html=1;strokeColor=#d6b656;fillColor=#fff2cc;align=left;verticalAlign=middle;whiteSpace=wrap;rounded=0;dashed=1;spacingLeft=35;spacingRight=10;fontFamily=Comic Sans MS;" vertex="1" parent="1">
          <mxGeometry x="305" y="420" width="240" height="43" as="geometry" />
        </mxCell>
        <mxCell id="Ktnll7n3VR85cGEusO8C-21" style="edgeStyle=orthogonalEdgeStyle;rounded=1;orthogonalLoop=1;jettySize=auto;html=1;strokeColor=#6c8ebf;strokeWidth=2;fillColor=#dae8fc;dashed=1;dashPattern=1 1;fontFamily=Comic Sans MS;" edge="1" parent="1" source="Ktnll7n3VR85cGEusO8C-22" target="Ktnll7n3VR85cGEusO8C-8">
          <mxGeometry relative="1" as="geometry">
            <Array as="points">
              <mxPoint x="213" y="110" />
              <mxPoint x="560" y="110" />
              <mxPoint x="560" y="55" />
            </Array>
          </mxGeometry>
        </mxCell>
        <mxCell id="Ktnll7n3VR85cGEusO8C-22" value="Server-side rendered application" style="rounded=0;whiteSpace=wrap;html=1;dashed=1;fillColor=#dae8fc;strokeColor=#6c8ebf;strokeWidth=2;fontFamily=Comic Sans MS;" vertex="1" parent="1">
          <mxGeometry x="163" y="30" width="100" height="60" as="geometry" />
        </mxCell>
        <mxCell id="Ktnll7n3VR85cGEusO8C-23" value="3" style="ellipse;whiteSpace=wrap;html=1;aspect=fixed;strokeWidth=2;fontFamily=Comic Sans MS;spacingBottom=4;spacingRight=2;strokeColor=#9673a6;fillColor=#e1d5e7;" vertex="1" parent="1">
          <mxGeometry x="316" y="207" width="20" height="20" as="geometry" />
        </mxCell>
        <mxCell id="Ktnll7n3VR85cGEusO8C-24" value="4" style="ellipse;whiteSpace=wrap;html=1;aspect=fixed;strokeWidth=2;fontFamily=Comic Sans MS;spacingBottom=4;spacingRight=2;strokeColor=#d6b656;fillColor=#fff2cc;" vertex="1" parent="1">
          <mxGeometry x="294.87" y="273" width="20" height="20" as="geometry" />
        </mxCell>
        <mxCell id="Ktnll7n3VR85cGEusO8C-25" value="5" style="ellipse;whiteSpace=wrap;html=1;aspect=fixed;strokeWidth=2;fontFamily=Comic Sans MS;spacingBottom=4;spacingRight=2;strokeColor=#6c8ebf;fillColor=#dae8fc;" vertex="1" parent="1">
          <mxGeometry x="296.99999999999994" y="364.5" width="20" height="20" as="geometry" />
        </mxCell>
        <mxCell id="Ktnll7n3VR85cGEusO8C-26" value="6" style="ellipse;whiteSpace=wrap;html=1;aspect=fixed;strokeWidth=2;fontFamily=Comic Sans MS;spacingBottom=4;spacingRight=2;strokeColor=#d6b656;fillColor=#fff2cc;" vertex="1" parent="1">
          <mxGeometry x="312" y="431.5" width="20" height="20" as="geometry" />
        </mxCell>
        <mxCell id="Ktnll7n3VR85cGEusO8C-27" value="7" style="ellipse;whiteSpace=wrap;html=1;aspect=fixed;strokeWidth=2;fontFamily=Comic Sans MS;spacingBottom=4;spacingRight=2;strokeColor=#6c8ebf;fillColor=#dae8fc;" vertex="1" parent="1">
          <mxGeometry x="336" y="500" width="20" height="20" as="geometry" />
        </mxCell>
      </root>
    </mxGraphModel>
  </diagram>
</mxfile>
